<svg 
 xmlns="http://www.w3.org/2000/svg"
 xmlns:xlink="http://www.w3.org/1999/xlink"
 width="23px" height="23px">
<path fill-rule="evenodd"  fill="rgb(174, 176, 181)"
 d="M2.767,2.305 C1.581,3.491 0.972,4.964 0.939,6.723 L0.939,15.864 C0.972,17.625 1.581,19.097 2.767,20.282 C3.951,21.467 5.424,22.076 7.185,22.110 L16.325,22.110 C18.085,22.076 19.558,21.467 20.743,20.282 C21.928,19.097 22.537,17.625 22.572,15.864 L22.572,6.723 C22.537,4.964 21.928,3.491 20.743,2.305 C19.558,1.121 18.085,0.511 16.325,0.477 L7.185,0.477 C5.424,0.511 3.951,1.121 2.767,2.305 ZM16.528,2.610 C17.646,2.644 18.568,3.025 19.296,3.753 C20.024,4.481 20.405,5.403 20.439,6.520 L20.439,16.067 C20.405,17.184 20.024,18.107 19.296,18.835 C18.568,19.563 17.646,19.944 16.528,19.977 L6.982,19.977 C5.864,19.944 4.942,19.563 4.214,18.835 C3.486,18.107 3.105,17.184 3.072,16.067 L3.072,6.520 C3.105,5.403 3.486,4.481 4.214,3.753 C4.942,3.025 5.864,2.644 6.982,2.610 L16.528,2.610 ZM16.503,4.667 C16.249,4.920 16.122,5.234 16.122,5.606 C16.122,5.979 16.249,6.292 16.503,6.545 C16.757,6.800 17.070,6.926 17.443,6.926 C17.815,6.926 18.128,6.800 18.382,6.545 C18.636,6.292 18.763,5.979 18.763,5.606 C18.763,5.234 18.636,4.920 18.382,4.667 C18.128,4.413 17.815,4.269 17.443,4.235 C17.070,4.269 16.757,4.413 16.503,4.667 ZM7.921,7.460 C6.888,8.493 6.355,9.770 6.322,11.294 C6.355,12.817 6.888,14.096 7.921,15.127 C8.953,16.161 10.232,16.694 11.755,16.727 C13.279,16.694 14.556,16.161 15.589,15.127 C16.621,14.096 17.155,12.817 17.189,11.294 C17.155,9.770 16.621,8.493 15.589,7.460 C14.556,6.427 13.279,5.894 11.755,5.860 C10.232,5.894 8.953,6.427 7.921,7.460 ZM14.040,9.008 C14.650,9.618 14.954,10.380 14.954,11.294 C14.954,12.208 14.650,12.970 14.040,13.579 C13.431,14.188 12.669,14.493 11.755,14.493 C10.841,14.493 10.079,14.188 9.470,13.579 C8.861,12.970 8.556,12.208 8.556,11.294 C8.556,10.380 8.861,9.618 9.470,9.008 C10.079,8.399 10.841,8.078 11.755,8.044 C12.669,8.078 13.431,8.399 14.040,9.008 Z"/>
</svg>