<svg 
 xmlns="http://www.w3.org/2000/svg"
 xmlns:xlink="http://www.w3.org/1999/xlink"
 width="18px" height="21px">
<path fill-rule="evenodd"  fill="rgb(174, 176, 181)"
 d="M15.458,13.620 C16.609,12.147 17.167,10.480 17.134,8.618 C17.100,6.316 16.287,4.412 14.696,2.905 C13.105,1.399 11.124,0.612 8.755,0.544 C6.385,0.612 4.405,1.399 2.814,2.905 C1.222,4.412 0.410,6.316 0.376,8.618 C0.376,10.040 0.732,11.360 1.443,12.579 C1.747,13.019 2.136,13.256 2.611,13.290 C3.017,13.256 3.347,13.112 3.601,12.858 C3.855,12.604 3.982,12.292 3.982,11.919 C3.982,11.682 3.931,11.445 3.829,11.208 C3.322,10.395 3.068,9.532 3.068,8.618 C3.101,7.095 3.652,5.825 4.718,4.809 C5.784,3.794 7.130,3.269 8.755,3.235 C10.346,3.269 11.683,3.794 12.767,4.809 C13.850,5.825 14.409,7.095 14.443,8.618 C14.476,9.769 14.163,10.810 13.503,11.741 C12.843,12.672 11.734,13.155 10.177,13.188 C9.635,13.188 9.195,13.019 8.857,12.680 C8.518,12.343 8.349,11.902 8.349,11.360 C8.382,10.751 8.577,10.150 8.933,9.557 C9.288,8.965 9.499,8.229 9.568,7.348 C9.533,6.637 9.330,6.155 8.958,5.901 C8.585,5.647 8.137,5.520 7.613,5.520 C7.087,5.520 6.588,5.741 6.114,6.180 C5.640,6.621 5.386,7.417 5.353,8.567 C5.386,9.176 5.437,9.668 5.505,10.040 L5.657,10.598 L3.068,18.368 L3.068,18.571 C3.068,18.977 3.211,19.325 3.499,19.612 C3.786,19.900 4.134,20.044 4.540,20.044 C5.115,20.044 5.538,19.807 5.810,19.333 L5.861,19.333 L7.232,14.711 C8.010,15.524 8.975,15.948 10.126,15.981 L10.126,15.981 C12.530,15.880 14.307,15.092 15.458,13.620 Z"/>
</svg>