<svg 
 xmlns="http://www.w3.org/2000/svg"
 xmlns:xlink="http://www.w3.org/1999/xlink"
 width="24px" height="20px">
<path fill-rule="evenodd"  fill="rgb(174, 176, 181)"
 d="M20.743,5.231 L20.794,5.840 C20.760,9.057 19.618,12.019 17.366,14.727 C15.115,17.436 11.839,18.875 7.540,19.044 C6.220,19.044 4.958,18.858 3.757,18.485 C2.555,18.113 1.447,17.605 0.431,16.962 C0.803,16.996 1.175,17.013 1.548,17.013 C2.631,17.013 3.663,16.844 4.646,16.505 C5.627,16.167 6.507,15.675 7.286,15.032 C6.271,14.999 5.373,14.685 4.595,14.092 C3.816,13.500 3.275,12.730 2.970,11.782 C3.241,11.850 3.529,11.883 3.833,11.883 C4.273,11.883 4.679,11.833 5.052,11.731 C3.968,11.495 3.079,10.962 2.386,10.131 C1.692,9.302 1.345,8.312 1.345,7.161 L1.345,7.110 C1.954,7.449 2.648,7.636 3.427,7.668 C2.818,7.263 2.327,6.721 1.954,6.044 C1.581,5.367 1.396,4.614 1.396,3.784 C1.396,2.955 1.599,2.184 2.005,1.473 C3.156,2.895 4.552,4.030 6.195,4.876 C7.836,5.722 9.639,6.213 11.603,6.348 C11.501,6.010 11.450,5.655 11.450,5.282 C11.484,3.962 11.941,2.862 12.822,1.981 C13.701,1.101 14.785,0.644 16.072,0.610 C17.493,0.644 18.644,1.136 19.525,2.083 C20.574,1.880 21.556,1.507 22.470,0.966 C22.097,2.083 21.420,2.946 20.439,3.555 C21.353,3.421 22.233,3.167 23.079,2.794 C22.436,3.742 21.657,4.554 20.743,5.231 L20.743,5.231 Z"/>
</svg>