<svg xmlns="http://www.w3.org/2000/svg" xmlns:xlink="http://www.w3.org/1999/xlink" width="66" height="66" viewBox="0 0 66 66">
  <defs>
    <style>
      .cls-1 {
        fill-rule: evenodd;
        filter: url(#filter);
      }
    </style>
    <filter id="filter" x="675" y="1247" width="66" height="66" filterUnits="userSpaceOnUse">
      <feFlood result="flood" flood-color="#333"/>
      <feComposite result="composite" operator="in" in2="SourceGraphic"/>
      <feBlend result="blend" in2="SourceGraphic"/>
    </filter>
  </defs>
  <path class="cls-1" d="M704.806,1300.23a17.035,17.035,0,1,0-17.032-17.04A17.059,17.059,0,0,0,704.806,1300.23Zm0-31.94a14.905,14.905,0,1,1-14.9,14.9A14.923,14.923,0,0,1,704.806,1268.29Zm0,20.23a5.325,5.325,0,1,0-5.322-5.33A5.332,5.332,0,0,0,704.806,1288.52Zm0-8.52a3.2,3.2,0,1,1-3.193,3.19A3.2,3.2,0,0,1,704.806,1280Zm0-3.19a3.2,3.2,0,1,0-3.193-3.2A3.2,3.2,0,0,0,704.806,1276.81Zm0-4.26a1.065,1.065,0,1,1-1.064,1.06A1.066,1.066,0,0,1,704.806,1272.55Zm0,17.03a3.2,3.2,0,1,0,3.194,3.19A3.195,3.195,0,0,0,704.806,1289.58Zm0,4.26a1.065,1.065,0,1,1,1.065-1.07A1.068,1.068,0,0,1,704.806,1293.84Zm9.581-7.45a3.2,3.2,0,1,0-3.194-3.2A3.2,3.2,0,0,0,714.387,1286.39Zm0-4.26a1.065,1.065,0,1,1-1.065,1.06A1.065,1.065,0,0,1,714.387,1282.13Zm-15.968,1.06a3.194,3.194,0,1,0-3.193,3.2A3.195,3.195,0,0,0,698.419,1283.19Zm-4.258,0a1.065,1.065,0,1,1,1.065,1.07A1.066,1.066,0,0,1,694.161,1283.19Zm18.286-28.79-0.552,2.06a27.731,27.731,0,0,1,19.561,19.56l2.056-.55A29.877,29.877,0,0,0,712.447,1254.4Zm-7.641-7.4h-1.064v6.41a29.8,29.8,0,1,0,30.844,30.85H741v-1.07h0A36.236,36.236,0,0,0,704.806,1247Zm0,63.87a27.675,27.675,0,0,1-1.064-55.33v4.67a26.655,26.655,0,0,0-8.12,4.06l1.337,1.66a24.672,24.672,0,0,1,6.783-3.48v2.65h1.064a18.111,18.111,0,0,1,18.1,18.09v1.07h3.277a29.2,29.2,0,0,1,.981,7.45h2.129a31.4,31.4,0,0,0-.914-7.45h4.081A27.7,27.7,0,0,1,704.806,1310.87Zm20.2-28.74A20.245,20.245,0,0,0,705.871,1263v-13.85a34.1,34.1,0,0,1,32.983,32.98H725.005Zm8.544-4.26h2.129V1280h-2.129v-2.13Zm-4.259,0h2.129V1280H729.29v-2.13ZM708,1251.26h2.129v2.13H708v-2.13Zm8.756,51.35,1.661,1.33c0.492-.61.965-1.25,1.409-1.9l-1.759-1.2C717.653,1301.44,717.212,1302.04,716.756,1302.61Zm2.486-3.64,1.842,1.07c0.394-.68.767-1.39,1.107-2.09l-1.919-.93C719.954,1297.68,719.607,1298.34,719.242,1298.97Zm1.909-3.97,1.983,0.78c0.291-.75.553-1.5,0.776-2.25l-2.039-.61C721.664,1293.61,721.421,1294.31,721.151,1295Zm-28.294-31.22-1.662-1.33c-0.491.61-.964,1.25-1.408,1.9l1.759,1.2C691.96,1264.95,692.4,1264.35,692.857,1263.78Zm-2.487,3.64-1.841-1.07c-0.394.68-.767,1.38-1.107,2.09l1.919,0.92C689.658,1268.71,690.005,1268.05,690.37,1267.42Zm-3.893,3.19c-0.29.74-.552,1.5-0.776,2.24l2.04,0.61c0.207-.68.449-1.38,0.72-2.07Zm5.748,30.91c0.742,0.29,1.5.55,2.239,0.78l0.614-2.04c-0.689-.21-1.39-0.45-2.078-0.72Zm-8.163-4.72c0.615,0.5,1.255.97,1.9,1.41l1.2-1.76c-0.6-.41-1.2-0.85-1.772-1.31Zm3.9,2.67c0.685,0.4,1.389.77,2.091,1.11l0.923-1.92c-0.655-.32-1.31-0.66-1.949-1.03Zm8.326,6.08v2.13a29.749,29.749,0,0,0,17.7-5.56l-1.337-1.66A28.009,28.009,0,0,1,696.29,1305.55Zm-15.968-30.87a29.778,29.778,0,0,0,5.56,17.7l1.658-1.34a28.109,28.109,0,0,1-5.089-16.36h-2.129Z" transform="translate(-675 -1247)"/>
</svg>
