<svg xmlns="http://www.w3.org/2000/svg" width="62" height="62" viewBox="0 0 62 62">
  <defs>
    <style>
      .cls-1 {
        fill: #333;
        fill-rule: evenodd;
      }
    </style>
  </defs>
  <path class="cls-1" d="M1330,1251h-52a5,5,0,0,0-5,5v57h2v-14a6,6,0,0,1,6-6h39.38l-1,2H1284v2h40v-2h-2.38l1-2H1327a6,6,0,0,1,6,6v14h2v-57A5,5,0,0,0,1330,1251Zm0,39a1,1,0,0,1-1,1h-5.38l4.46-8.92-1.84-5.51,1.65-3.1-1.77-.94-1.99,3.76-0.08.03,0.03,0.07-6.96,13.14,1.77,0.94,1.73-3.29,2.37,0.6-1.61,3.22H1279a1,1,0,0,1-1-1v-27a1,1,0,0,1,1-1h50a1,1,0,0,1,1,1v27h0Zm-8.42-4.64,3.37-6.35,0.97,2.91-2.01,4.03Zm11.42,8.37a8.038,8.038,0,0,0-1.9-1.59,3,3,0,0,0,.9-2.14v-27a3.009,3.009,0,0,0-3-3h-50a3.009,3.009,0,0,0-3,3v27a3,3,0,0,0,.9,2.14,8.038,8.038,0,0,0-1.9,1.59V1256a3.009,3.009,0,0,1,3-3h52a3.009,3.009,0,0,1,3,3v37.73h0ZM1304,1264c-8.71,0-16.08,2.96-20.75,8.34l-0.46.52,8.79,16.48,0.88-.45a24.588,24.588,0,0,1,23.08,0l0.88,0.45,8.78-16.48-0.45-.52C1320.08,1266.96,1312.71,1264,1304,1264Zm11.58,22.67A27.154,27.154,0,0,0,1304,1284a26.689,26.689,0,0,0-11.57,2.67l-2.25-4.21A25.325,25.325,0,0,1,1303,1279v-2a26.869,26.869,0,0,0-13.77,3.68l-4.02-7.53c4.31-4.62,10.95-7.15,18.79-7.15s14.48,2.53,18.79,7.15ZM1305,1277h2v2h-2v-2Zm-27,31h2v2h-2v-2Zm4,0h2v2h-2v-2Zm4,0h2v2h-2v-2Zm40-52h2v2h-2v-2Zm-4,0h2v2h-2v-2Z" transform="translate(-1273 -1251)"/>
</svg>
