<?xml version="1.0" standalone="no"?>
<!DOCTYPE svg PUBLIC "-//W3C//DTD SVG 20010904//EN"
 "http://www.w3.org/TR/2001/REC-SVG-20010904/DTD/svg10.dtd">
<svg version="1.0" xmlns="http://www.w3.org/2000/svg"
 width="64.000000pt" height="64.000000pt" viewBox="0 0 148.000000 148.000000"
 preserveAspectRatio="xMidYMid meet">

<g transform="translate(0.000000,148.000000) scale(0.100000,-0.100000)"
fill="#333333" stroke="none">
<path d="M384 1315 c-100 -59 -109 -63 -114 -44 -5 20 -7 19 -45 -11 -201
-160 -215 -466 -30 -644 30 -30 69 -59 85 -66 l30 -12 0 -219 c0 -212 1 -219
20 -219 19 0 20 7 20 210 l0 210 28 -12 c15 -6 68 -11 117 -11 50 0 102 5 118
11 l27 12 0 -210 c0 -203 1 -210 20 -210 19 0 20 7 20 218 l0 217 35 19 c57
31 133 114 165 180 84 172 48 369 -92 502 -57 55 -62 57 -67 37 -6 -22 -9 -21
-101 33 -52 31 -102 60 -111 64 -11 6 -47 -10 -125 -55z m223 -48 l108 -63 3
-145 3 -145 -112 -64 c-61 -36 -116 -64 -121 -62 -5 1 -56 30 -114 63 l-104
61 0 147 1 146 107 62 c59 34 110 62 114 62 4 1 55 -27 115 -62z m-377 -264
l1 -198 122 -70 c67 -38 129 -71 137 -73 8 -1 71 30 140 70 l125 73 3 198 c1
108 6 197 11 197 4 0 22 -20 40 -45 147 -205 74 -480 -157 -588 -59 -28 -77
-31 -157 -32 -81 0 -97 3 -157 32 -89 42 -150 100 -192 183 -69 139 -54 292
42 418 13 17 28 32 33 32 5 0 9 -89 9 -197z m154 -203 c57 -33 106 -60 110
-60 4 0 54 27 110 60 57 33 106 60 109 60 4 0 7 -6 7 -14 0 -8 -51 -44 -114
-80 l-113 -67 -112 66 c-61 36 -111 72 -111 80 0 8 3 15 6 15 3 0 52 -27 108
-60z"/>
<path d="M470 1160 l0 -70 -70 0 c-63 0 -70 -2 -70 -20 0 -18 7 -20 70 -20
l69 0 3 -72 c2 -59 6 -73 20 -76 15 -3 18 7 20 70 l3 73 73 3 c64 3 72 5 72
22 0 18 -7 20 -75 20 l-75 0 0 70 c0 63 -2 70 -20 70 -18 0 -20 -7 -20 -70z"/>
<path d="M1097 1374 c-4 -4 -7 -47 -7 -96 0 -69 4 -98 20 -128 18 -36 20 -59
20 -263 0 -218 -1 -225 -21 -230 -20 -5 -20 -11 -17 -251 l3 -246 28 -27 c24
-25 35 -28 92 -28 57 0 68 3 92 28 l28 27 3 246 c3 240 3 246 -17 251 -20 5
-21 12 -21 230 0 205 2 227 20 264 17 33 20 55 18 132 l-3 92 -116 3 c-63 1
-118 -1 -122 -4z m201 -106 c2 -52 -2 -76 -18 -107 -18 -37 -20 -58 -20 -271
l0 -230 -45 0 -45 0 0 230 c0 211 -2 234 -20 270 -20 39 -29 158 -13 174 4 4
41 5 83 4 l75 -3 3 -67z m0 -867 c2 -209 2 -215 -20 -238 -30 -32 -98 -32
-128 -1 -19 20 -20 34 -20 233 0 117 3 215 7 219 4 4 41 5 83 4 l75 -3 3 -214z"/>
<path d="M1192 553 c5 -26 38 -29 38 -4 0 15 -6 21 -21 21 -14 0 -19 -5 -17
-17z"/>
<path d="M1190 470 c0 -13 7 -20 20 -20 13 0 20 7 20 20 0 13 -7 20 -20 20
-13 0 -20 -7 -20 -20z"/>
<path d="M1197 403 c-14 -13 -6 -33 13 -33 13 0 20 7 20 20 0 19 -20 27 -33
13z"/>
<path d="M824 1355 c-4 -10 13 -36 50 -75 33 -35 69 -86 87 -125 22 -46 36
-65 49 -65 18 0 18 2 4 42 -21 60 -61 125 -107 176 -52 55 -75 69 -83 47z"/>
<path d="M957 705 c-39 -82 -113 -168 -183 -212 -35 -22 -41 -30 -33 -45 9
-17 15 -15 68 22 32 21 77 61 100 87 45 52 124 199 115 214 -14 23 -35 3 -67
-66z"/>
<path d="M390 430 c0 -13 7 -20 20 -20 13 0 20 7 20 20 0 13 -7 20 -20 20 -13
0 -20 -7 -20 -20z"/>
<path d="M793 383 c-50 -34 -64 -55 -44 -67 14 -9 122 67 119 83 -5 24 -21 21
-75 -16z"/>
<path d="M390 350 c0 -13 7 -20 20 -20 13 0 20 7 20 20 0 13 -7 20 -20 20 -13
0 -20 -7 -20 -20z"/>
</g>
</svg>
