<svg 
 xmlns="http://www.w3.org/2000/svg"
 xmlns:xlink="http://www.w3.org/1999/xlink"
 width="29px" height="29px">
<path fill-rule="evenodd"  fill="rgb(0, 0, 0)"
 d="M14.314,29.000 C6.433,29.000 -0.000,22.568 -0.000,14.686 C-0.000,6.804 6.432,0.372 14.314,0.372 C22.195,0.372 28.628,6.804 28.628,14.686 C28.628,22.567 22.196,29.000 14.314,29.000 ZM14.314,2.049 C7.346,2.049 1.677,7.718 1.677,14.686 C1.677,21.654 7.346,27.322 14.314,27.322 C21.282,27.322 26.951,21.654 26.951,14.686 C26.951,7.718 21.282,2.049 14.314,2.049 ZM14.389,25.588 C14.382,25.588 14.376,25.589 14.370,25.589 C14.366,25.589 14.362,25.588 14.359,25.588 C14.344,25.588 14.329,25.589 14.314,25.589 C8.302,25.589 3.411,20.698 3.411,14.686 C3.411,8.674 8.302,3.783 14.314,3.783 C14.329,3.783 14.344,3.783 14.359,3.783 C14.362,3.783 14.366,3.783 14.370,3.783 C14.376,3.783 14.382,3.783 14.389,3.783 C20.371,3.824 25.217,8.704 25.217,14.686 C25.217,20.682 20.359,25.548 14.389,25.588 ZM23.501,15.513 L18.423,15.513 C18.317,16.034 18.113,16.531 17.833,16.962 L21.426,20.556 C22.578,19.162 23.329,17.415 23.501,15.513 ZM15.209,23.868 C15.863,23.805 16.497,23.673 17.105,23.480 L16.805,22.756 C16.627,22.327 16.831,21.837 17.259,21.659 C17.686,21.483 18.177,21.686 18.354,22.114 L18.650,22.827 C19.220,22.522 19.754,22.160 20.245,21.747 L16.659,18.161 C16.226,18.454 15.735,18.667 15.209,18.782 L15.209,23.868 ZM13.531,23.878 L13.531,18.805 C12.989,18.702 12.484,18.495 12.037,18.205 L8.444,21.798 C9.851,22.961 11.608,23.716 13.531,23.878 ZM7.253,20.617 L10.839,17.031 C10.536,16.582 10.316,16.073 10.205,15.525 L5.127,15.525 C5.301,17.453 6.072,19.213 7.253,20.617 ZM5.127,13.847 L10.205,13.847 C10.317,13.299 10.536,12.789 10.839,12.341 L7.253,8.755 C6.072,10.159 5.301,11.918 5.127,13.847 ZM13.531,5.493 C11.608,5.656 9.851,6.410 8.444,7.574 L12.037,11.167 C12.484,10.877 12.989,10.669 13.531,10.566 L13.531,5.493 ZM14.314,12.170 C12.927,12.170 11.798,13.299 11.798,14.686 C11.798,16.073 12.927,17.202 14.314,17.202 C15.701,17.202 16.830,16.073 16.830,14.686 C16.830,13.299 15.701,12.170 14.314,12.170 ZM15.209,5.504 L15.209,10.589 C15.735,10.704 16.226,10.918 16.659,11.211 L20.245,7.625 C18.855,6.455 17.116,5.688 15.209,5.504 ZM21.426,8.816 L17.833,12.409 C18.113,12.840 18.317,13.326 18.423,13.847 L23.501,13.847 C23.329,11.946 22.578,10.209 21.426,8.816 ZM14.370,15.525 C13.907,15.525 13.531,15.149 13.531,14.686 C13.531,14.223 13.907,13.847 14.370,13.847 C14.833,13.847 15.209,14.223 15.209,14.686 C15.209,15.149 14.833,15.525 14.370,15.525 Z"/>
</svg>