<svg 
 xmlns="http://www.w3.org/2000/svg"
 xmlns:xlink="http://www.w3.org/1999/xlink"
 width="31px" height="31px">
<path fill-rule="evenodd"  fill="rgb(0, 0, 0)"
 d="M29.432,18.488 L26.682,18.488 C26.225,25.464 20.436,31.000 13.385,31.000 C6.019,31.000 -0.000,24.974 -0.000,17.598 C-0.000,10.539 5.529,4.744 12.497,4.286 L12.497,1.528 C12.497,1.014 12.932,0.606 13.445,0.640 C18.545,0.982 22.817,2.830 25.799,5.984 C28.624,8.972 30.187,12.979 30.320,17.572 C30.335,18.073 29.933,18.488 29.432,18.488 ZM13.385,9.593 C12.895,9.593 12.497,9.195 12.497,8.704 L12.497,6.069 C6.509,6.522 1.777,11.520 1.777,17.598 C1.777,24.007 6.984,29.221 13.385,29.221 C19.456,29.221 24.448,24.483 24.901,18.488 L22.270,18.488 C21.779,18.488 21.381,18.090 21.381,17.598 C21.381,13.184 17.794,9.593 13.385,9.593 ZM14.274,2.499 L14.274,7.854 C18.955,8.278 22.694,12.022 23.118,16.709 L28.497,16.709 C27.898,8.751 22.547,3.405 14.274,2.499 ZM13.385,23.825 C9.956,23.825 7.166,21.032 7.166,17.598 C7.166,14.165 9.956,11.372 13.385,11.372 C16.815,11.372 19.604,14.165 19.604,17.598 C19.604,21.032 16.815,23.825 13.385,23.825 ZM13.385,13.151 C10.936,13.151 8.943,15.146 8.943,17.598 C8.943,20.051 10.936,22.046 13.385,22.046 C15.835,22.046 17.827,20.051 17.827,17.598 C17.827,15.146 15.835,13.151 13.385,13.151 ZM13.385,20.267 C11.916,20.267 10.720,19.070 10.720,17.598 C10.720,16.127 11.916,14.930 13.385,14.930 C14.855,14.930 16.051,16.127 16.051,17.598 C16.051,19.070 14.855,20.267 13.385,20.267 ZM13.385,16.709 C12.896,16.709 12.497,17.108 12.497,17.598 C12.497,18.089 12.896,18.488 13.385,18.488 C13.875,18.488 14.274,18.089 14.274,17.598 C14.274,17.108 13.875,16.709 13.385,16.709 ZM7.104,12.198 C6.613,12.198 6.215,11.800 6.215,11.309 C6.215,10.818 6.613,10.419 7.104,10.419 C7.594,10.419 7.992,10.818 7.992,11.309 C7.992,11.800 7.594,12.198 7.104,12.198 ZM4.501,18.488 C4.010,18.488 3.613,18.090 3.613,17.599 C3.613,17.107 4.010,16.709 4.501,16.709 C4.992,16.709 5.390,17.107 5.390,17.599 C5.390,18.090 4.992,18.488 4.501,18.488 ZM7.104,22.998 C7.594,22.998 7.992,23.397 7.992,23.888 C7.992,24.379 7.594,24.777 7.104,24.777 C6.613,24.777 6.215,24.379 6.215,23.888 C6.215,23.397 6.613,22.998 7.104,22.998 ZM13.385,25.604 C13.876,25.604 14.274,26.002 14.274,26.493 C14.274,26.985 13.876,27.383 13.385,27.383 C12.895,27.383 12.497,26.985 12.497,26.493 C12.497,26.002 12.895,25.604 13.385,25.604 ZM19.668,22.998 C20.158,22.998 20.556,23.397 20.556,23.888 C20.556,24.379 20.158,24.777 19.668,24.777 C19.177,24.777 18.779,24.379 18.779,23.888 C18.779,23.397 19.177,22.998 19.668,22.998 Z"/>
</svg>