<svg 
 xmlns="http://www.w3.org/2000/svg"
 xmlns:xlink="http://www.w3.org/1999/xlink"
 width="40px" height="27px">
<path fill-rule="evenodd"  fill="rgb(0, 0, 0)"
 d="M39.162,8.100 L34.333,25.813 C34.263,26.072 34.068,26.277 33.814,26.363 C33.730,26.392 33.643,26.405 33.557,26.405 C33.382,26.405 33.209,26.349 33.067,26.241 C33.027,26.210 28.948,23.186 19.876,23.186 C10.804,23.186 6.725,26.210 6.685,26.241 C6.472,26.403 6.190,26.451 5.939,26.363 C5.685,26.277 5.490,26.072 5.419,25.813 L0.591,8.100 C0.520,7.840 0.584,7.561 0.761,7.359 C1.002,7.084 6.786,0.642 19.876,0.642 C22.888,0.642 25.764,0.991 28.424,1.681 C28.659,1.741 28.854,1.906 28.955,2.127 C29.055,2.348 29.051,2.602 28.942,2.820 L26.438,7.830 L29.398,12.273 C29.535,12.479 29.570,12.738 29.491,12.974 L28.960,14.569 L31.026,12.501 L29.575,8.143 C29.486,7.878 29.541,7.587 29.719,7.373 L32.676,3.822 C32.916,3.537 33.319,3.451 33.652,3.616 C37.214,5.378 38.917,7.274 38.988,7.355 C39.168,7.558 39.233,7.838 39.162,8.100 ZM33.502,5.348 L31.243,8.059 L32.710,12.465 C32.807,12.754 32.731,13.073 32.516,13.289 L27.688,18.120 C27.424,18.384 27.012,18.433 26.696,18.235 C26.378,18.038 26.237,17.650 26.356,17.296 L27.840,12.838 L24.840,8.335 C24.679,8.095 24.660,7.787 24.789,7.528 L27.050,3.007 C24.796,2.506 22.388,2.252 19.876,2.252 C9.096,2.252 3.547,6.891 2.265,8.122 L6.688,24.346 C8.464,23.366 12.692,21.576 19.876,21.576 C27.061,21.576 31.289,23.366 33.065,24.346 L37.487,8.125 C36.937,7.602 35.623,6.471 33.502,5.348 ZM8.525,14.690 C8.383,14.972 8.100,15.135 7.804,15.135 C7.683,15.135 7.561,15.107 7.445,15.050 C7.047,14.851 6.886,14.367 7.085,13.969 L10.304,7.528 C10.504,7.131 10.986,6.970 11.384,7.168 C11.782,7.367 11.943,7.851 11.744,8.248 L8.525,14.690 ZM6.915,11.469 C6.774,11.752 6.490,11.914 6.195,11.914 C6.074,11.914 5.951,11.887 5.836,11.829 C5.438,11.630 5.277,11.147 5.476,10.749 L7.085,7.528 C7.284,7.131 7.767,6.970 8.165,7.168 C8.563,7.367 8.724,7.851 8.525,8.248 L6.915,11.469 Z"/>
</svg>